<svg width="20" height="20" viewBox="0 0 20 20" fill="none" xmlns="http://www.w3.org/2000/svg">
<path fill-rule="evenodd" clip-rule="evenodd" d="M16.594 5.28033C16.8869 4.98744 16.8869 4.51256 16.594 4.21967C16.3011 3.92678 15.8263 3.92678 15.5334 4.21967L10.407 9.34608L5.28056 4.21967C4.98767 3.92678 4.5128 3.92678 4.2199 4.21967C3.92701 4.51256 3.92701 4.98744 4.2199 5.28033L9.34631 10.4067L4.21967 15.5334C3.92678 15.8263 3.92678 16.3011 4.21967 16.594C4.51256 16.8869 4.98744 16.8869 5.28033 16.594L10.407 11.4674L15.5336 16.594C15.8265 16.8869 16.3014 16.8869 16.5943 16.594C16.8872 16.3011 16.8872 15.8263 16.5943 15.5334L11.4676 10.4067L16.594 5.28033Z" fill="#9BA0B0"/>
</svg>
