<svg xmlns="http://www.w3.org/2000/svg" viewBox="0 0 446.51 118.93"><defs><style>.cls-1{fill:#fff;}</style></defs><g id="图层_2" data-name="图层 2"><g id="图层_1-2" data-name="图层 1"><polygon class="cls-1" points="39.58 71.13 16.09 71.13 41.98 0 65.47 0 39.58 71.13"/><polygon class="cls-1" points="67.98 71.13 91.47 71.13 65.58 0 42.1 0 67.98 71.13"/><rect class="cls-1" x="44.37" y="34.39" width="17.85" height="42.03" transform="translate(-2.11 108.7) rotate(-90)"/><polygon class="cls-1" points="179.2 71.13 155.72 71.13 181.61 0 205.09 0 179.2 71.13"/><polygon class="cls-1" points="207.61 71.13 231.09 71.13 205.21 0 181.72 0 207.61 71.13"/><rect class="cls-1" x="184" y="34.39" width="17.85" height="42.03" transform="translate(137.52 248.33) rotate(-90)"/><rect class="cls-1" x="365.87" width="23.48" height="71.13"/><polygon class="cls-1" points="389.35 0 365.87 0 406.93 71.13 430.42 71.13 389.35 0"/><rect class="cls-1" x="406.93" width="23.48" height="71.13"/><rect class="cls-1" x="310.02" y="21.53" width="17.85" height="81.35" transform="translate(256.74 381.15) rotate(-90)"/><rect class="cls-1" x="324.92" y="-16.85" width="17.85" height="51.54" transform="translate(324.92 342.77) rotate(-90)"/><rect class="cls-1" x="324.92" y="9.79" width="17.85" height="51.54" transform="translate(298.28 369.41) rotate(-90)"/><rect class="cls-1" x="237.34" width="23.48" height="71.13"/><rect class="cls-1" x="308.08" width="23.48" height="71.13"/><polygon class="cls-1" points="301.89 0 278.41 0 255.23 40.14 237.34 71.13 260.83 71.13 301.89 0"/><polygon class="cls-1" points="269.62 15.22 257.88 35.56 278.41 71.13 301.89 71.13 269.62 15.22"/><polygon class="cls-1" points="152.05 0 137.9 38.87 130.64 18.92 116.72 18.92 109.46 38.87 95.31 0 71.83 0 97.72 71.13 121.2 71.13 121.2 71.13 121.2 71.13 123.68 64.32 126.16 71.13 126.16 71.13 126.16 71.13 149.65 71.13 175.53 0 152.05 0"/><path class="cls-1" d="M275.75,87.29a10.84,10.84,0,0,1,7.59,18.46,10.33,10.33,0,0,1-7.58,3.19h-7.93v8.49h-6.21V87.29h14.13m-7.92,15.07h7.11a3.77,3.77,0,0,0,0-7.53h-7.11v7.53m7.93-16.57H260.12v33.14h9.21v-8.49h6.43a12.33,12.33,0,0,0,0-24.65Zm-6.43,15.07V96.33h5.61a2.22,2.22,0,0,1,1.6.67,2.27,2.27,0,0,1,0,3.2,2.21,2.21,0,0,1-1.6.66Z"/><polygon class="cls-1" points="153.37 85.76 0 85.76 153.37 92.65 153.37 85.76"/><polygon class="cls-1" points="293.14 85.76 446.51 85.76 293.14 92.65 293.14 85.76"/><path class="cls-1" d="M229.13,87.26l-11,30.17H209.3l-.79-2.19-1.41-3.87-1.41,3.87-.8,2.19H196l-11-30.17h7.76l6.24,17.14,1.41,3.87,1.41-3.87,5.22-14.35,4.06,11.17,1.16,3.18,1.41,3.87,1.41-3.87,6.24-17.14h7.75m2.15-1.5H220.33l-6.6,18.13-1.16-3.18-5.44-14.95h-.07l-6.59,18.13-6.6-18.13h-11L195,118.93h10.95l1.16-3.18,1.15,3.18h11l12.07-33.17Z"/><path class="cls-1" d="M244.06,87.26l11,30.17h-7.76l-.79-2.19-.36-1h-13l-.36,1-.79,2.19h-7.76l11-30.17h8.9m-9,21.67h9.16l-.73-2-2.44-6.7-1.41-3.87-1.41,3.87-2.44,6.7-.73,2m10.08-23.17h-11L222,118.93h11l1.15-3.17h10.94l1.15,3.17h11L245.11,85.76Zm-7.94,21.67,2.44-6.7,2.44,6.7Z"/><path class="cls-1" d="M178.8,87.29l2.25,6.2H166.48l2,2.45c.07.08.15.18,10.71,11.17a6.29,6.29,0,0,1,1.11,3.54,6.71,6.71,0,0,1-1.9,4.78,5.91,5.91,0,0,1-4.46,2H158.47v-6.22h16.39l-2.43-2.54L161.79,97.58a5.39,5.39,0,0,1-1.08-3.51,6.68,6.68,0,0,1,1.88-4.78,5.85,5.85,0,0,1,4.46-2H178.8m1-1.5h-12.8a7.36,7.36,0,0,0-5.56,2.47,8.24,8.24,0,0,0-2.28,5.81,6.85,6.85,0,0,0,1.46,4.51l10.68,11.13H157v9.22h17a7.39,7.39,0,0,0,5.55-2.47,8.25,8.25,0,0,0,2.31-5.81,7.84,7.84,0,0,0-1.44-4.48Q169.8,95.12,169.68,95h13.51l-3.34-9.2Z"/></g></g></svg>