<svg width="40" height="40" viewBox="0 0 40 40" fill="none" xmlns="http://www.w3.org/2000/svg">
<rect width="40" height="40" rx="20" fill="#5D42FF"/>
<path fill-rule="evenodd" clip-rule="evenodd" d="M18.5218 11.7694C15.0685 13.288 12.8967 17.002 14.1611 20.6927C14.9256 22.9246 16.4664 24.5151 18.7513 25.328C22.7468 26.7497 26.9178 23.6236 26.45 19.5602C26.2514 17.8331 25.3765 16.5181 23.5996 15.9739C22.2779 15.5691 21.013 15.7583 19.9809 16.721C19.1049 17.5373 18.7728 18.5426 19.1236 19.7111C19.3173 20.3537 19.7823 20.7535 20.415 20.9443C20.9705 21.1113 21.4003 20.8697 21.7312 20.4074C21.6645 20.2956 21.606 20.1734 21.5249 20.0684C21.093 19.5087 21.4433 18.6947 21.8167 18.3557C22.3243 17.8951 23.1462 17.853 23.6863 18.2346C24.5623 18.8523 24.9605 20.4953 24.4845 21.5261C23.6879 23.2503 21.6397 24.254 19.7602 23.7657C16.7929 22.9949 15.33 20.0579 16.2876 17.2187C17.5603 13.4461 21.8377 11.796 25.483 13.6054C28.4298 15.0676 29.5237 17.6208 29.4062 20.6601C29.2137 25.6642 24.1767 29.3765 19.1258 28.4115C14.2273 27.4758 10.5897 22.7737 10.8507 18.327C10.9466 16.6851 11.3113 15.1477 12.1492 13.737C14.3293 10.0684 17.7252 8.34193 21.9729 8.06266C23.091 7.98911 24.2186 8.0516 25.2838 8.05216C25.2253 8.02617 25.0918 7.96036 24.9528 7.90838C22.8787 7.12975 20.735 6.88145 18.5383 7.19555C17.1763 7.36367 15.9191 7.73252 14.7761 8.26009C14.7552 8.2634 14.7303 8.27059 14.7 8.28331C14.1859 8.50285 14.0998 7.99852 13.9172 7.84589C13.7396 7.69768 13.7628 7.88183 13.7628 7.88183C13.9178 8.6212 13.5294 8.91927 13.477 8.95576C13.1532 9.1565 12.8426 9.37328 12.5425 9.60112C12.5337 9.60499 12.5271 9.60499 12.5177 9.60941C11.8089 9.93347 11.5143 9.386 11.1883 9.21955C10.8435 9.04369 10.9737 9.33236 10.9737 9.33236C11.4006 10.1829 11.0321 10.9106 10.9632 11.0334C10.6609 11.3602 10.3779 11.7036 10.1131 12.0603C10.0855 12.078 10.0585 12.0946 10.027 12.1228C9.33088 12.7538 8.78917 12.2544 8.35888 12.1604C7.88447 12.0576 8.15312 12.3689 8.15312 12.3689C9.03078 13.2697 8.75331 14.3531 8.75331 14.3531L8.75551 14.3542C7.62796 16.7968 7.22305 19.6237 7.6914 22.4618C9.23103 31.7904 20.6771 36.1961 28.1799 30.1867C30.6165 28.2351 32.3068 24.4758 32.4849 21.3657C32.6118 19.157 31.9305 17.1524 30.6745 15.3374C28.0095 11.4863 22.6828 9.93956 18.5218 11.7694Z" fill="white"/>
</svg>
