<svg width="24" height="24" viewBox="0 0 24 24" fill="none" xmlns="http://www.w3.org/2000/svg">
<g id="Group 48097335">
<path id="Vector 1025" d="M11 12.2071V17.7929C11 17.9255 11.0527 18.0527 11.1464 18.1464L12.1464 19.1464C12.4614 19.4614 13 19.2383 13 18.7929V12.2071C13 12.0745 13.0527 11.9473 13.1464 11.8536L17.8536 7.14645C17.9473 7.05268 18 6.9255 18 6.79289V5.5C18 5.22386 17.7761 5 17.5 5H6.5C6.22386 5 6 5.22386 6 5.5V6.79289C6 6.9255 6.05268 7.05268 6.14645 7.14645L10.8536 11.8536C10.9473 11.9473 11 12.0745 11 12.2071Z" stroke="#9BA0B0" stroke-width="1.2"/>
</g>
</svg>
