<svg width="24" height="24" viewBox="0 0 24 24" fill="none" xmlns="http://www.w3.org/2000/svg">
<path d="M11.4775 5.56968C11.1846 5.27678 10.7098 5.27678 10.4169 5.56968C10.124 5.86257 10.124 6.33744 10.4169 6.63034L13.0365 9.25001H1.84719C1.43298 9.25001 1.09719 9.58579 1.09719 10C1.09719 10.4142 1.43298 10.75 1.84719 10.75H14.8472C15.1505 10.75 15.424 10.5673 15.5401 10.287C15.6562 10.0068 15.592 9.68417 15.3775 9.46968L11.4775 5.56968ZM5.21686 18.4303C5.50975 18.7232 5.98463 18.7232 6.27752 18.4303C6.57041 18.1374 6.57041 17.6626 6.27752 17.3697L3.65785 14.75L14.8472 14.75C15.2614 14.75 15.5972 14.4142 15.5972 14C15.5972 13.5858 15.2614 13.25 14.8472 13.25L1.84719 13.25C1.54384 13.25 1.27037 13.4327 1.15428 13.713C1.03819 13.9932 1.10236 14.3158 1.31686 14.5303L5.21686 18.4303Z" fill="#E5E8EF"/>
</svg>
