<svg width="24" height="24" viewBox="0 0 24 24" fill="none" xmlns="http://www.w3.org/2000/svg">
<path d="M6.4666 5.17035C7.21998 4.56172 8.0751 4.07507 9.002 3.73978C9.70941 4.60956 10.7891 5.16697 12 5.16697C13.2109 5.16697 14.2906 4.60956 14.998 3.73978C15.9249 4.07507 16.78 4.56172 17.5334 5.17035C17.4464 5.4926 17.4 5.83106 17.4 6.17946C17.4 8.07742 18.7689 9.65565 20.5733 9.98065C20.7296 10.6373 20.8125 11.3232 20.8125 12.0295C20.8125 12.3837 20.7916 12.7328 20.7512 13.0755C18.8597 13.3257 17.4 14.9446 17.4 16.9045C17.4 17.5319 17.5502 18.1255 17.8163 18.6501C17.0691 19.3072 16.2102 19.8393 15.2724 20.2146C14.5895 19.1279 13.3801 18.4045 12 18.4045C10.6199 18.4045 9.41046 19.1279 8.72756 20.2146C7.78976 19.8393 6.93093 19.3072 6.1837 18.6501C6.44983 18.1255 6.6 17.5319 6.6 16.9045C6.6 14.9446 5.14034 13.3257 3.24884 13.0755C3.20835 12.7328 3.1875 12.3837 3.1875 12.0295C3.1875 11.3232 3.2704 10.6373 3.42669 9.98065C5.23106 9.65565 6.6 8.07742 6.6 6.17946C6.6 5.83106 6.55365 5.4926 6.4666 5.17035ZM10.2473 2.24271C10.0295 1.83709 9.55057 1.61253 9.07809 1.74655C7.44918 2.20858 5.97971 3.04654 4.76901 4.1595C4.43316 4.46825 4.3558 4.94801 4.53804 5.33625C4.65768 5.59113 4.725 5.87613 4.725 6.17946C4.725 7.27712 3.83517 8.16695 2.7375 8.16695C2.31262 8.16695 1.92041 8.44036 1.78863 8.8662C1.47893 9.86701 1.3125 10.9297 1.3125 12.0295C1.3125 12.7402 1.38199 13.4355 1.51484 14.1088C1.61746 14.629 2.09164 14.9598 2.5856 14.9227C2.63572 14.9189 2.68636 14.917 2.7375 14.917C3.83517 14.917 4.725 15.8068 4.725 16.9045C4.725 17.3769 4.56135 17.8085 4.28685 18.1495C3.97623 18.5353 3.97987 19.1134 4.35012 19.4928C5.58478 20.7582 7.132 21.7192 8.86861 22.2506C9.40872 22.4159 9.94976 22.1091 10.1221 21.6136C10.3927 20.8357 11.1326 20.2795 12 20.2795C12.8674 20.2795 13.6073 20.8357 13.8779 21.6136C14.0502 22.1091 14.5913 22.4159 15.1314 22.2506C16.868 21.7192 18.4152 20.7582 19.6499 19.4928C20.0201 19.1134 20.0238 18.5353 19.7132 18.1495C19.4387 17.8085 19.275 17.3769 19.275 16.9045C19.275 15.8068 20.1648 14.917 21.2625 14.917C21.3137 14.917 21.3643 14.9189 21.4144 14.9227C21.9083 14.9598 22.3825 14.629 22.4852 14.1088C22.618 13.4355 22.6875 12.7402 22.6875 12.0295C22.6875 10.9297 22.5211 9.867 22.2114 8.8662C22.0796 8.44036 21.6874 8.16695 21.2625 8.16695C20.1648 8.16695 19.275 7.27712 19.275 6.17946C19.275 5.87613 19.3423 5.59113 19.462 5.33625C19.6442 4.94801 19.5668 4.46825 19.231 4.1595C18.0203 3.04654 16.5508 2.20858 14.9219 1.74655C14.4494 1.61253 13.9705 1.83708 13.7527 2.24271C13.4163 2.86929 12.7568 3.29197 12 3.29197C11.2432 3.29197 10.5837 2.86929 10.2473 2.24271ZM12 7.50366C9.51472 7.50366 7.5 9.51838 7.5 12.0037C7.5 14.4889 9.51472 16.5037 12 16.5037C14.4853 16.5037 16.5 14.4889 16.5 12.0037C16.5 9.51838 14.4853 7.50366 12 7.50366ZM9.375 12.0037C9.375 10.5539 10.5502 9.37866 12 9.37866C13.4498 9.37866 14.625 10.5539 14.625 12.0037C14.625 13.4534 13.4498 14.6287 12 14.6287C10.5502 14.6287 9.375 13.4534 9.375 12.0037Z" fill="#E5E8EF"/>
</svg>
