<svg width="36" height="36" viewBox="0 0 36 36" fill="none" xmlns="http://www.w3.org/2000/svg">
<circle cx="18.0001" cy="18" r="18" fill="#1E212B"/>
<circle cx="18.0001" cy="18" r="14.625" fill="#131620"/>
<path d="M12.5948 14.9494C12.5167 15.0276 12.5167 15.1542 12.5948 15.2323L13.3019 15.9394C13.38 16.0175 13.5066 16.0175 13.5847 15.9394L15.3501 14.174L15.3501 24.3C15.3501 24.4105 15.4397 24.5 15.5501 24.5H16.5501C16.6606 24.5 16.7501 24.4105 16.7501 24.3L16.7501 12.0012C16.7501 11.5558 16.2115 11.3327 15.8966 11.6477L12.5948 14.9494ZM23.4055 21.0508C23.4836 20.9727 23.4836 20.8461 23.4055 20.768L22.6984 20.0609C22.6203 19.9827 22.4936 19.9827 22.4155 20.0609L20.6501 21.8262L20.6501 11.7003C20.6501 11.5898 20.5606 11.5003 20.4501 11.5003H19.4501C19.3397 11.5003 19.2501 11.5898 19.2501 11.7003L19.2501 23.999C19.2501 24.4445 19.7887 24.6676 20.1037 24.3526L23.4055 21.0508Z" fill="#E5E8EF"/>
</svg>
