<svg width="24" height="24" viewBox="0 0 24 24" xmlns="http://www.w3.org/2000/svg">
<path d="M4.18322 7.42244C4.00807 7.24728 3.95849 6.99409 4.03451 6.77477C4.0645 6.68807 4.11411 6.60665 4.18334 6.53742L6.66032 4.06065C6.75804 3.96294 6.91648 3.96294 7.0142 4.06065L7.76617 4.81263C7.86389 4.91035 7.86389 5.06878 7.76617 5.1665L6.73472 6.19796H15.2255C17.7303 6.19796 19.7608 8.22849 19.7608 10.7333V11C19.7608 11.1382 19.6488 11.2502 19.5106 11.2502H18.4471C18.3089 11.2502 18.1969 11.1382 18.1969 11V10.7333C18.1969 9.09221 16.8666 7.76186 15.2255 7.76186H6.73481L7.76629 8.79335C7.86401 8.89107 7.86401 9.0495 7.76629 9.14722L7.01431 9.8992C6.91659 9.99692 6.75816 9.99692 6.66044 9.8992L4.18322 7.42244ZM17.3397 14.1008L19.8167 16.5776C19.8859 16.6468 19.9355 16.7282 19.9655 16.8149C20.0415 17.0343 19.9919 17.2874 19.8168 17.4626L17.3396 19.9394C17.2418 20.0371 17.0834 20.0371 16.9857 19.9394L16.2337 19.1874C16.136 19.0897 16.136 18.9312 16.2337 18.8335L17.2652 17.802H8.77452C6.26973 17.802 4.23919 15.7715 4.23919 13.2667V13.0937C4.23919 12.9555 4.35122 12.8435 4.48942 12.8435H5.55287C5.69107 12.8435 5.8031 12.9555 5.8031 13.0937V13.2667C5.8031 14.9078 7.13345 16.2381 8.77452 16.2381H17.2653L16.2338 15.2067C16.1361 15.1089 16.1361 14.9505 16.2338 14.8528L16.9858 14.1008C17.0835 14.0031 17.242 14.0031 17.3397 14.1008Z" fill="#9BA0B0"/>
</svg>
