<svg width="40" height="40" viewBox="0 0 40 40" fill="none" xmlns="http://www.w3.org/2000/svg">
<rect width="40" height="40" rx="20" fill="url(#paint0_linear_3465_1919)"/>
<path fill-rule="evenodd" clip-rule="evenodd" d="M21.8921 12.6368C23.3047 12.6368 24.4499 11.4917 24.4499 10.0791C24.4499 8.66649 23.3047 7.52135 21.8921 7.52135C20.4795 7.52135 19.3344 8.66649 19.3344 10.0791C19.3344 11.4917 20.4795 12.6368 21.8921 12.6368ZM33.4459 20.0037C33.4459 22.8776 31.1161 25.2073 28.2422 25.2073C25.3683 25.2073 23.0386 22.8776 23.0386 20.0037C23.0386 17.1298 25.3683 14.8 28.2422 14.8C31.1161 14.8 33.4459 17.1298 33.4459 20.0037ZM24.4499 29.9244C24.4499 31.337 23.3047 32.4821 21.8921 32.4821C20.4795 32.4821 19.3344 31.337 19.3344 29.9244C19.3344 28.5118 20.4795 27.3667 21.8921 27.3667C23.3047 27.3667 24.4499 28.5118 24.4499 29.9244ZM8.79486 12.8101C8.04517 14.7946 9.10355 17.0436 11.088 17.7933C12.411 18.2784 13.8221 18.0138 14.8364 17.1759C15.7625 16.5144 16.9532 16.2939 18.0997 16.7349C18.8494 16.9995 19.4227 17.4846 19.8196 18.102L19.8637 18.1902C20.0401 18.4548 20.3047 18.7194 20.6575 18.8076C21.4513 19.1163 22.3773 18.6753 22.6419 17.8815C22.9506 17.0877 22.5096 16.1616 21.7158 15.897C21.3631 15.7647 21.0103 15.7647 20.6575 15.897C19.9519 16.1175 19.1581 16.1175 18.4084 15.8529C17.306 15.456 16.5563 14.5741 16.2476 13.5598L16.2035 13.4716C16.2035 13.4275 16.2035 13.3834 16.1594 13.3834V13.2952C15.8507 12.0604 15.0128 11.002 13.7339 10.5611C11.7495 9.76728 9.50044 10.7816 8.79486 12.8101ZM11.0884 22.2103C9.10398 22.9599 8.0456 25.209 8.79528 27.1934C9.54497 29.222 11.7499 30.2363 13.7344 29.4425C15.0132 29.0015 15.8511 27.9431 16.1598 26.7084V26.6202C16.2039 26.6202 16.2039 26.5761 16.2039 26.532L16.248 26.4438C16.5567 25.4295 17.3064 24.5475 18.4089 24.1506C19.1585 23.886 19.9523 23.886 20.6579 24.1065C21.0107 24.2388 21.3635 24.2388 21.7163 24.1065C22.5101 23.8419 22.951 22.9158 22.6424 22.1221C22.3778 21.3283 21.4517 20.8873 20.6579 21.196C20.3051 21.2842 20.0405 21.5488 19.8641 21.8134L19.82 21.9016C19.4231 22.519 18.8498 23.004 18.1002 23.2686C16.9536 23.7096 15.7629 23.4891 14.8368 22.8277C13.8226 21.9898 12.4114 21.7252 11.0884 22.2103Z" fill="white"/>
<defs>
<linearGradient id="paint0_linear_3465_1919" x1="38.7255" y1="0.776264" x2="8.96415e-07" y2="36.9841" gradientUnits="userSpaceOnUse">
<stop stop-color="#673ECA"/>
<stop offset="1" stop-color="#502EA2"/>
</linearGradient>
</defs>
</svg>
