<svg width="24" height="24" viewBox="0 0 24 24" xmlns="http://www.w3.org/2000/svg">
<path fill-rule="evenodd" clip-rule="evenodd" d="M5.25 7C5.25 5.48122 6.48121 4.25 8 4.25H11.9945C12.4087 4.25 12.7445 4.58579 12.7445 5C12.7445 5.41421 12.4087 5.75 11.9945 5.75H8C7.30964 5.75 6.75 6.30964 6.75 7V17C6.75 17.6904 7.30964 18.25 8 18.25H11.9981C12.4123 18.25 12.7481 18.5858 12.7481 19C12.7481 19.4142 12.4123 19.75 11.9981 19.75H8C6.48122 19.75 5.25 18.5188 5.25 17V7ZM15.4697 7.53327C15.7626 7.24038 16.2374 7.24038 16.5303 7.53327L20.5303 11.5333C20.8232 11.8262 20.8232 12.301 20.5303 12.5939L16.5303 16.5939C16.2374 16.8868 15.7626 16.8868 15.4697 16.5939C15.1768 16.301 15.1768 15.8262 15.4697 15.5333L18.2529 12.75H12C11.5858 12.75 11.25 12.4142 11.25 12C11.25 11.5858 11.5858 11.25 12 11.25H18.1257L15.4697 8.59393C15.1768 8.30104 15.1768 7.82616 15.4697 7.53327Z" fill="#9BA0B0"/>
</svg>
