<svg width="24" height="24" viewBox="0 0 24 24" fill="none" xmlns="http://www.w3.org/2000/svg">
<path d="M15.6088 4.97598L12.0537 6.09185L15.9719 6.09433L15.6088 4.97598ZM15.4066 3.40179C16.077 3.19135 16.7919 3.56018 17.0089 4.22852L17.6149 6.09486C18.3578 6.09486 19.1008 6.09486 19.8437 6.09486C20.2579 6.09486 20.5937 6.43064 20.5937 6.84486V19.4074C20.5937 19.8216 20.2579 20.1574 19.8437 20.1574C14.6145 20.1574 9.38536 20.1574 4.1562 20.1574C3.74199 20.1574 3.4062 19.822 3.4062 19.4078C3.40621 15.5435 3.40629 10.7087 3.40613 6.84445C3.40611 6.43022 3.7419 6.09486 4.15613 6.09486H6.82663L15.4066 3.40179ZM4.96863 7.65736V18.5949H19.0312V15.4699H17.078C15.7768 15.4699 14.6561 14.456 14.6561 13.1261C14.6561 11.7962 15.7768 10.7824 17.078 10.7824H19.0312V7.65736H4.96863ZM19.0312 12.3449H17.078C16.5671 12.3449 16.2187 12.7301 16.2187 13.1261C16.2187 13.5221 16.5671 13.9074 17.078 13.9074H19.0312V12.3449Z" fill="#E5E8EF"/>
</svg>
