<svg width="20" height="20" viewBox="0 0 20 20" fill="none" xmlns="http://www.w3.org/2000/svg">
<g id="icon/&#232;&#175;&#180;&#230;&#152;&#142;">
<path id="Vector" d="M10.0001 17.2915C14.0272 17.2915 17.2918 14.0269 17.2918 9.9998C17.2918 5.97272 14.0272 2.70813 10.0001 2.70813C5.97303 2.70813 2.70844 5.97272 2.70844 9.9998C2.70844 14.0269 5.97303 17.2915 10.0001 17.2915Z" stroke="#5C6170" stroke-width="1.5" stroke-linecap="round" stroke-linejoin="round"/>
<path id="Vector_2" d="M7.87811 7.81231C8.04954 7.32498 8.38791 6.91405 8.83329 6.6523C9.27866 6.39055 9.80231 6.29486 10.3115 6.3822C10.8206 6.46953 11.2825 6.73425 11.6151 7.12946C11.9478 7.52467 12.1299 8.02487 12.1292 8.54147C12.1292 9.99981 9.94165 10.729 9.94165 10.729" stroke="#5C6170" stroke-width="1.5" stroke-linecap="round" stroke-linejoin="round"/>
<path id="Vector_3" d="M10 13.6456H10.0073" stroke="#5C6170" stroke-width="1.66667" stroke-linecap="round" stroke-linejoin="round"/>
</g>
</svg>
