<svg width="21" height="20" viewBox="0 0 21 20" fill="#9BA0B0" xmlns="http://www.w3.org/2000/svg">
<path fill-rule="evenodd" clip-rule="evenodd" d="M17.4482 4.28629C19.5658 7.28278 20.6116 10.6627 20.2207 14.5538C20.219 14.5703 20.2101 14.5854 20.1961 14.5954C18.5925 15.7286 17.0388 16.4164 15.5069 16.8725C15.4825 16.8796 15.456 16.871 15.4411 16.8511C15.0872 16.3771 14.7656 15.8775 14.4839 15.3528C14.4677 15.3219 14.4825 15.2847 14.5158 15.2725C15.0265 15.0873 15.5121 14.8654 15.9792 14.6026C16.016 14.5818 16.0183 14.5311 15.9843 14.5067C15.8852 14.4359 15.787 14.3614 15.693 14.287C15.6754 14.2732 15.6518 14.2705 15.6318 14.2798C12.5993 15.6276 9.27725 15.6276 6.20881 14.2798C6.18889 14.2712 6.16522 14.2741 6.14811 14.2877C6.05436 14.3621 5.95592 14.4359 5.85772 14.5067C5.82374 14.5311 5.82655 14.5818 5.86358 14.6026C6.33069 14.8604 6.81631 15.0873 7.32631 15.2734C7.35936 15.2856 7.37506 15.3219 7.35866 15.3528C7.08303 15.8782 6.76147 16.3778 6.401 16.8517C6.3853 16.8709 6.35952 16.8797 6.33514 16.8725C4.81054 16.4164 3.25687 15.7286 1.65327 14.5954C1.63992 14.5854 1.63031 14.5696 1.6289 14.5532C1.30218 11.1874 1.96804 7.77949 4.39874 4.28562C4.4046 4.27637 4.4135 4.26915 4.42382 4.26486C5.61983 3.73658 6.90116 3.34792 8.24037 3.12595C8.26475 3.12234 8.28912 3.13317 8.30178 3.15392C8.46725 3.43589 8.65639 3.79748 8.78436 4.09298C10.196 3.88545 11.6297 3.88545 13.0708 4.09298C13.1988 3.8038 13.3814 3.43589 13.5461 3.15392C13.5582 3.13281 13.583 3.12152 13.6076 3.12595C14.9475 3.34859 16.2288 3.73725 17.4239 4.26486C17.4344 4.26915 17.4431 4.27637 17.4482 4.28629ZM9.50213 10.6858C9.5169 9.69083 8.76315 8.8675 7.81698 8.8675C6.87854 8.8675 6.13206 9.68361 6.13206 10.6858C6.13206 11.6878 6.89331 12.5039 7.81698 12.5039C8.75565 12.5039 9.50213 11.6878 9.50213 10.6858ZM15.7321 10.6858C15.7469 9.69083 14.9932 8.8675 14.0472 8.8675C13.1086 8.8675 12.3621 9.68361 12.3621 10.6858C12.3621 11.6878 13.1233 12.5039 14.0472 12.5039C14.9932 12.5039 15.7321 11.6878 15.7321 10.6858Z"/>
</svg>
