<svg width="16" height="16" viewBox="0 0 16 16" fill="none" xmlns="http://www.w3.org/2000/svg">
<path d="M8.00008 13.8332C11.2217 13.8332 13.8334 11.2215 13.8334 7.99984C13.8334 4.77818 11.2217 2.1665 8.00008 2.1665C4.77842 2.1665 2.16675 4.77818 2.16675 7.99984C2.16675 11.2215 4.77842 13.8332 8.00008 13.8332Z" stroke="#B6BABF" stroke-width="1.2" stroke-linecap="round" stroke-linejoin="round"/>
<path d="M6.30249 6.24984C6.43963 5.85998 6.71033 5.53124 7.06663 5.32184C7.42293 5.11244 7.84185 5.03589 8.24918 5.10576C8.65651 5.17563 9.02597 5.3874 9.29212 5.70357C9.55827 6.01974 9.70394 6.4199 9.70332 6.83318C9.70332 7.99984 7.95332 8.58318 7.95332 8.58318" stroke="#B6BABF" stroke-width="1.2" stroke-linecap="round" stroke-linejoin="round"/>
<path d="M8 10.9165H8.00583" stroke="#B6BABF" stroke-width="1.33333" stroke-linecap="round" stroke-linejoin="round"/>
</svg>
