<svg xmlns="http://www.w3.org/2000/svg" width="24" height="24" viewBox="0 0 24 24" fill="none">
    <circle cx="12" cy="12" r="10" fill="#E43555"/>
    <path fill-rule="evenodd" clip-rule="evenodd" d="M9.6629 8.60248C9.37001 8.30959 8.89513 8.30959 8.60224 8.60248C8.30935 8.89538 8.30935 9.37025 8.60224 9.66314L10.9393 12.0002L8.60233 14.3372C8.30944 14.63 8.30944 15.1049 8.60233 15.3978C8.89522 15.6907 9.3701 15.6907 9.66299 15.3978L11.9999 13.0609L14.3369 15.3978C14.6298 15.6907 15.1047 15.6907 15.3976 15.3978C15.6905 15.1049 15.6905 14.63 15.3976 14.3372L13.0606 12.0002L15.3977 9.66314C15.6906 9.37025 15.6906 8.89538 15.3977 8.60248C15.1048 8.30959 14.6299 8.30959 14.337 8.60248L11.9999 10.9395L9.6629 8.60248Z" fill="white"/>
</svg>