<svg width="20" height="20" viewBox="0 0 20 20" fill="none" xmlns="http://www.w3.org/2000/svg">
<path d="M16.0419 15.8868C15.9925 15.965 15.924 16.0293 15.8429 16.0737C15.7618 16.1181 15.6707 16.1411 15.5782 16.1405H3.53599C3.44371 16.1413 3.35275 16.1186 3.27163 16.0746C3.19051 16.0306 3.1219 15.9667 3.07224 15.889C3.02504 15.8139 3 15.7271 3 15.6385C3 15.5499 3.02504 15.463 3.07224 15.388C3.12169 15.3097 3.19013 15.2452 3.27121 15.2004C3.3523 15.1557 3.44338 15.1322 3.53599 15.1321H15.5672C15.6599 15.1309 15.7513 15.1534 15.8328 15.1974C15.9144 15.2415 15.9833 15.3056 16.0332 15.3836C16.0826 15.4579 16.1098 15.5447 16.1113 15.6339C16.1129 15.7231 16.0888 15.8109 16.0419 15.8868ZM9.89943 11.9843C9.33686 12.4968 8.6306 12.8243 7.87599 12.9227L6.56349 13.0299C5.93131 13.0824 5.58349 13.1108 5.51787 13.1108C5.45137 13.1112 5.38545 13.0985 5.32388 13.0733C5.26232 13.0482 5.20633 13.0111 5.15912 12.9643C4.98631 12.7936 4.98631 12.7936 5.08912 11.5621L5.19849 10.2496C5.2969 9.49498 5.62445 8.78872 6.13693 8.22615L10.9494 3.42459C11.2371 3.15196 11.6184 3 12.0147 3C12.4111 3 12.7924 3.15196 13.0801 3.42459L14.7054 5.0499C14.9868 5.33168 15.1449 5.71367 15.1449 6.11193C15.1449 6.5102 14.9868 6.89218 14.7054 7.17396L9.89943 11.9843ZM13.9944 5.76084L12.3691 4.13553C12.2743 4.04306 12.1472 3.99131 12.0147 3.99131C11.8823 3.99131 11.7552 4.04306 11.6604 4.13553L6.84787 8.94803C6.49637 9.33926 6.26809 9.82549 6.19162 10.3458L6.08224 11.6583L6.04724 12.0805L6.46943 12.0455L7.78193 11.9361C8.30202 11.8588 8.78801 11.6306 9.17974 11.2799L13.9922 6.48053C14.0847 6.38574 14.1365 6.25857 14.1365 6.12615C14.1365 5.99374 14.0847 5.86656 13.9922 5.77178L13.9944 5.76084Z" fill="#5B8EF4"/>
</svg>
