<svg width="36" height="36" viewBox="0 0 36 36" fill="none" xmlns="http://www.w3.org/2000/svg">
<circle cx="18" cy="18" r="18" fill="#1E212B"/>
<circle cx="18" cy="18" r="14.625" fill="#131620"/>
<path d="M17.3 22.4238V11.3035C17.3 11.193 17.3896 11.1035 17.5 11.1035H18.5C18.6105 11.1035 18.7 11.193 18.7 11.3035V22.4231L21.8185 19.3047C21.8966 19.2266 22.0232 19.2266 22.1013 19.3047L22.8084 20.0118C22.8865 20.0899 22.8865 20.2165 22.8084 20.2946L18.3536 24.7501C18.1583 24.9454 17.8417 24.9454 17.6465 24.7501L13.1917 20.2953C13.1136 20.2172 13.1136 20.0906 13.1917 20.0125L13.8988 19.3054C13.9769 19.2273 14.1035 19.2273 14.1816 19.3054L17.3 22.4238Z" fill="#9BA0B0"/>
</svg>
