<svg width="21" height="20" viewBox="0 0 21 20" fill="#9BA0B0" xmlns="http://www.w3.org/2000/svg">
<g clip-path="url(#clip0_9488_1079)">
<path fill-rule="evenodd" clip-rule="evenodd" d="M2.30129 9.63524C7.66999 7.29619 11.25 5.75414 13.0412 5.0091C18.1556 2.88186 19.2183 2.51233 19.911 2.50013C20.0633 2.49745 20.404 2.5352 20.6246 2.71424C20.8109 2.86542 20.8622 3.06964 20.8867 3.21298C20.9112 3.35631 20.9418 3.68283 20.9175 3.93796C20.6404 6.84999 19.4411 13.9167 18.831 17.1783C18.5729 18.5583 18.0646 19.0211 17.5725 19.0664C16.503 19.1648 15.6909 18.3596 14.6551 17.6806C13.0342 16.6181 12.1185 15.9567 10.5452 14.9199C8.72692 13.7217 9.90562 13.0631 10.9418 11.9869C11.213 11.7052 15.9251 7.4192 16.0163 7.03039C16.0277 6.98177 16.0383 6.80051 15.9306 6.7048C15.8229 6.60909 15.664 6.64182 15.5493 6.66785C15.3868 6.70474 12.7974 8.41621 7.78126 11.8022C7.04628 12.3069 6.38055 12.5528 5.78409 12.54C5.12654 12.5257 3.86167 12.1682 2.92137 11.8625C1.76805 11.4876 0.851419 11.2894 0.931237 10.6527C0.972811 10.3211 1.42949 9.98192 2.30129 9.63524Z"/>
</g>
<defs>
<clipPath id="clip0_9488_1079">
<rect width="20" height="20" fill="white" transform="translate(0.926392)"/>
</clipPath>
</defs>
</svg>
