<svg width="16" height="16" viewBox="0 0 16 16" fill="none" xmlns="http://www.w3.org/2000/svg">
<g id="Group 48097161">
<path id="Vector" d="M14.0419 13.8868C13.9925 13.965 13.924 14.0293 13.8429 14.0737C13.7618 14.1181 13.6707 14.1411 13.5782 14.1405H1.53599C1.44371 14.1413 1.35275 14.1186 1.27163 14.0746C1.19051 14.0306 1.1219 13.9667 1.07224 13.889C1.02504 13.8139 1 13.7271 1 13.6385C1 13.5499 1.02504 13.463 1.07224 13.388C1.12169 13.3097 1.19013 13.2452 1.27121 13.2004C1.3523 13.1557 1.44338 13.1322 1.53599 13.1321H13.5672C13.6599 13.1309 13.7513 13.1534 13.8328 13.1974C13.9144 13.2415 13.9833 13.3056 14.0332 13.3836C14.0826 13.4579 14.1098 13.5447 14.1113 13.6339C14.1129 13.7231 14.0888 13.8109 14.0419 13.8868ZM7.89943 9.98427C7.33686 10.4968 6.6306 10.8243 5.87599 10.9227L4.56349 11.0299C3.93131 11.0824 3.58349 11.1108 3.51787 11.1108C3.45137 11.1112 3.38545 11.0985 3.32388 11.0733C3.26232 11.0482 3.20633 11.0111 3.15912 10.9643C2.98631 10.7936 2.98631 10.7936 3.08912 9.56209L3.19849 8.24959C3.2969 7.49498 3.62445 6.78872 4.13693 6.22615L8.94943 1.42459C9.23712 1.15196 9.61839 1 10.0147 1C10.4111 1 10.7924 1.15196 11.0801 1.42459L12.7054 3.0499C12.9868 3.33168 13.1449 3.71367 13.1449 4.11193C13.1449 4.5102 12.9868 4.89218 12.7054 5.17396L7.89943 9.98427ZM11.9944 3.76084L10.3691 2.13553C10.2743 2.04306 10.1472 1.99131 10.0147 1.99131C9.88233 1.99131 9.75516 2.04306 9.66037 2.13553L4.84787 6.94803C4.49637 7.33926 4.26809 7.82549 4.19162 8.34584L4.08224 9.65834L4.04724 10.0805L4.46943 10.0455L5.78193 9.93615C6.30202 9.8588 6.78801 9.63064 7.17974 9.2799L11.9922 4.48053C12.0847 4.38574 12.1365 4.25857 12.1365 4.12615C12.1365 3.99374 12.0847 3.86656 11.9922 3.77178L11.9944 3.76084Z" fill="#477BFF"/>
</g>
</svg>
