<svg width="16" height="16" viewBox="0 0 16 16" fill="#E5E8EF" xmlns="http://www.w3.org/2000/svg">
<path d="M11.0506 2.59471C10.9725 2.51661 10.8458 2.51661 10.7677 2.59471L10.0606 3.30182C9.98253 3.37992 9.98253 3.50656 10.0606 3.58466L11.826 5.35004L1.70003 5.35006C1.58958 5.35006 1.50003 5.4396 1.50003 5.55006V6.55006C1.50003 6.66052 1.58958 6.75006 1.70003 6.75006L13.9988 6.75004C14.4443 6.75004 14.6673 6.21147 14.3524 5.89649L11.0506 2.59471ZM4.94923 13.4054C5.02733 13.4835 5.15397 13.4835 5.23207 13.4054L5.93918 12.6983C6.01728 12.6202 6.01728 12.4936 5.93918 12.4155L4.1738 10.6501L14.2998 10.6501C14.4102 10.6501 14.4998 10.5605 14.4998 10.4501V9.45006C14.4998 9.33961 14.4102 9.25006 14.2998 9.25006L2.001 9.25008C1.55555 9.25008 1.33247 9.78865 1.64745 10.1036L4.94923 13.4054Z" />
</svg>
