<svg width="12" height="12" viewBox="0 0 12 12" fill="none" xmlns="http://www.w3.org/2000/svg">
<path d="M9.31787 6.52484H0.977637C0.894794 6.52484 0.827637 6.45769 0.827637 6.37484V5.62484C0.827637 5.542 0.894794 5.47484 0.977637 5.47484H9.3174L6.97856 3.13601C6.91998 3.07743 6.91998 2.98245 6.97856 2.92387L7.50889 2.39354C7.56747 2.33496 7.66245 2.33496 7.72103 2.39354L11.0626 5.73468C11.2091 5.88113 11.2091 6.11857 11.0626 6.26501L7.72154 9.60609C7.66297 9.66467 7.56799 9.66467 7.50941 9.60609L6.97908 9.07576C6.9205 9.01718 6.9205 8.92221 6.97908 8.86363L9.31787 6.52484Z" fill="#5685FF"/>
</svg>
