<svg xmlns="http://www.w3.org/2000/svg" width="20" height="20" viewBox="0 0 20 20" fill="none">
    <path fill-rule="evenodd" clip-rule="evenodd" d="M7.74136 5.79192C7.74136 5.71958 7.8 5.66094 7.87233 5.66094H14.2075C14.2798 5.66094 14.3385 5.71958 14.3385 5.79192V12.1271C14.3385 12.1994 14.2798 12.258 14.2075 12.258H13.4595V7.87154C13.4595 7.13646 12.8636 6.54056 12.1285 6.54056H7.74136V5.79192ZM6.54136 6.54056V5.79192C6.54136 5.05684 7.13725 4.46094 7.87233 4.46094H14.2075C14.9426 4.46094 15.5385 5.05684 15.5385 5.79192V12.1271C15.5385 12.8621 14.9426 13.458 14.2075 13.458H13.4595V14.2067C13.4595 14.9418 12.8636 15.5377 12.1285 15.5377H5.79338C5.0583 15.5377 4.4624 14.9418 4.4624 14.2067V7.87154C4.4624 7.13646 5.0583 6.54056 5.79338 6.54056H6.54136ZM5.6624 7.87154C5.6624 7.7992 5.72104 7.74056 5.79338 7.74056H12.1285C12.2009 7.74056 12.2595 7.7992 12.2595 7.87154V14.2067C12.2595 14.279 12.2009 14.3377 12.1285 14.3377H5.79338C5.72104 14.3377 5.6624 14.279 5.6624 14.2067V7.87154Z" fill="#477BFF"/>
</svg>