<svg width="24" height="24" viewBox="0 0 24 24" fill="none" xmlns="http://www.w3.org/2000/svg">
<g id="&#229;&#164;&#141;&#229;&#136;&#182;_copy 1">
<path id="Union" fill-rule="evenodd" clip-rule="evenodd" d="M8.89355 6.54751C8.89355 6.35559 9.04913 6.2 9.24106 6.2H17.4529C17.6448 6.2 17.8004 6.35559 17.8004 6.54751V14.7593C17.8004 14.9512 17.6448 15.1068 17.4529 15.1068H16.3068V9.24338C16.3068 8.38871 15.614 7.69586 14.7593 7.69586H8.89355V6.54751ZM7.69354 7.69586V6.54751C7.69354 5.69285 8.38639 5 9.24106 5H17.4529C18.3075 5 19.0004 5.69285 19.0004 6.54751V14.7593C19.0004 15.614 18.3075 16.3068 17.4529 16.3068H16.3068V17.4552C16.3068 18.3098 15.614 19.0027 14.7593 19.0027H6.54751C5.69285 19.0027 5 18.3098 5 17.4552V9.24338C5 8.38871 5.69285 7.69586 6.54751 7.69586H7.69354ZM6.2 9.24338C6.2 9.05145 6.35559 8.89586 6.54751 8.89586H14.7593C14.9512 8.89586 15.1068 9.05145 15.1068 9.24338V17.4552C15.1068 17.6471 14.9512 17.8027 14.7593 17.8027H6.54751C6.35559 17.8027 6.2 17.6471 6.2 17.4552V9.24338Z" fill="#9BA0B0"/>
</g>
</svg>
