<svg width="211" height="56" viewBox="0 0 211 56" fill="none" xmlns="http://www.w3.org/2000/svg">
<g id="Awaken logo&#233;&#187;&#145;&#232;&#137;&#178; 1" clip-path="url(#clip0_7634_682)">
<g id="&#229;&#155;&#190;&#229;&#177;&#130; 2">
<g id="&#229;&#155;&#190;&#229;&#177;&#130; 1">
<path id="Vector" d="M18.6369 33.4926H7.57623L19.7669 0H30.8276L18.6369 33.4926Z" fill="#2A2E3A"/>
<path id="Vector_2" d="M32.0094 33.4926H43.07L30.8793 0H19.8234L32.0094 33.4926Z" fill="#2A2E3A"/>
<path id="Vector_3" d="M15.1995 21.8858V30.2908H34.99V21.8858H15.1995Z" fill="#2A2E3A"/>
<path id="Vector_4" d="M84.379 33.4926H73.3231L85.5138 0H96.5697L84.379 33.4926Z" fill="#2A2E3A"/>
<path id="Vector_5" d="M97.7563 33.4926H108.812L96.6262 0H85.5656L97.7563 33.4926Z" fill="#2A2E3A"/>
<path id="Vector_6" d="M80.9464 21.8858V30.2908H100.737V21.8858H80.9464Z" fill="#2A2E3A"/>
<path id="Vector_7" d="M183.331 0H172.275V33.4926H183.331V0Z" fill="#2A2E3A"/>
<path id="Vector_8" d="M183.331 0H172.275L191.609 33.4926H202.67L183.331 0Z" fill="#2A2E3A"/>
<path id="Vector_9" d="M202.665 0H191.609V33.4926H202.665V0Z" fill="#2A2E3A"/>
<path id="Vector_10" d="M131.028 25.0877V33.4927H169.333V25.0877H131.028Z" fill="#2A2E3A"/>
<path id="Vector_11" d="M145.059 9.63211e-05V8.40503L169.328 8.40503V9.63211e-05L145.059 9.63211e-05Z" fill="#2A2E3A"/>
<path id="Vector_12" d="M145.059 12.5438V20.9487H169.328V12.5438L145.059 12.5438Z" fill="#2A2E3A"/>
<path id="Vector_13" d="M122.811 0H111.755V33.4926H122.811V0Z" fill="#2A2E3A"/>
<path id="Vector_14" d="M156.12 0H145.064V33.4926H156.12V0Z" fill="#2A2E3A"/>
<path id="Vector_15" d="M142.149 0H131.094L120.179 18.9005L111.755 33.4926H122.816L142.149 0Z" fill="#2A2E3A"/>
<path id="Vector_16" d="M126.955 7.1665L121.427 16.7439L131.094 33.4926H142.15L126.955 7.1665Z" fill="#2A2E3A"/>
<path id="Vector_17" d="M71.5951 0L64.9323 18.3025L61.5138 8.90877H54.9594L51.5409 18.3025L44.8782 0H33.8223L46.013 33.4926H57.0689L58.2366 30.2861L59.4044 33.4926H70.465L82.651 0H71.5951Z" fill="#2A2E3A"/>
<path id="Vector_18" d="M129.841 41.1018C130.843 41.1128 131.82 41.4186 132.649 41.9811C133.479 42.5436 134.125 43.3378 134.506 44.2647C134.887 45.1916 134.987 46.2103 134.793 47.1935C134.599 48.1768 134.12 49.0812 133.415 49.794C132.955 50.2754 132.4 50.6571 131.786 50.9155C131.172 51.1739 130.512 51.3034 129.846 51.296H126.112V55.2937H123.188V41.1018H129.841ZM126.112 48.1977H129.46C129.914 48.1743 130.342 47.9773 130.655 47.6474C130.969 47.3175 131.143 46.8799 131.143 46.4249C131.143 45.97 130.969 45.5323 130.655 45.2024C130.342 44.8726 129.914 44.6756 129.46 44.6521H126.112V48.1977ZM129.846 40.3955H122.481V56H126.818V52.0023H129.846C131.356 51.9593 132.791 51.329 133.844 50.2453C134.897 49.1617 135.486 47.7101 135.486 46.1989C135.486 44.6878 134.897 43.2362 133.844 42.1525C132.791 41.0688 131.356 40.4385 129.846 40.3955ZM126.818 47.4914V45.3584H129.46C129.6 45.3578 129.739 45.3853 129.868 45.4395C129.998 45.4937 130.115 45.5734 130.213 45.6739C130.412 45.8742 130.524 46.145 130.524 46.4273C130.524 46.7096 130.412 46.9804 130.213 47.1807C130.115 47.2805 129.998 47.3595 129.868 47.4129C129.739 47.4663 129.6 47.493 129.46 47.4914H126.818Z" fill="#2A2E3A"/>
<path id="Vector_19" d="M72.2166 40.3813H0L72.2166 43.6256V40.3813Z" fill="#2A2E3A"/>
<path id="Vector_20" d="M138.029 40.3813H210.246L138.029 43.6256V40.3813Z" fill="#2A2E3A"/>
<path id="Vector_21" d="M107.889 41.0876L102.71 55.2936H98.5521L98.1801 54.2625L97.5162 52.4402L96.8523 54.2625L96.4756 55.2936H92.2896L87.1101 41.0876H90.764L93.7022 49.1583L94.3661 50.9805L95.03 49.1583L97.4879 42.4014L99.3996 47.6609L99.9458 49.1583L100.61 50.9805L101.274 49.1583L104.212 41.0876H107.861M108.873 40.3813H103.746L100.638 48.9181L100.092 47.4208L97.5303 40.3813H97.4973L94.3943 48.9181L91.2866 40.3813H86.1071L91.8187 55.9999H96.9747L97.5209 54.5026L98.0624 55.9999H103.242L108.925 40.3813H108.873Z" fill="#2A2E3A"/>
<path id="Vector_22" d="M114.919 41.0876L120.099 55.2936H116.445L116.073 54.2625L115.903 53.7916H109.782L109.613 54.2625L109.241 55.2936H105.587L110.766 41.0876H114.957M110.719 51.2913H115.032L114.689 50.3496L113.54 47.1948L112.876 45.3725L112.212 47.1948L111.063 50.3496L110.719 51.2913ZM115.466 40.3813H110.286L104.532 55.9999H109.712L110.253 54.5073H115.404L115.946 55.9999H121.125L115.414 40.3813H115.466ZM111.727 50.585L112.876 47.4302L114.025 50.585H111.727Z" fill="#2A2E3A"/>
<path id="Vector_23" d="M84.1907 41.1019L85.2502 44.0213H78.3896L79.3314 45.1749C79.3643 45.2126 79.402 45.2597 84.3743 50.4345C84.7122 50.9249 84.8943 51.5058 84.897 52.1013C84.9032 52.5169 84.8274 52.9296 84.6739 53.3158C84.5204 53.702 84.2922 54.0542 84.0024 54.3521C83.7397 54.6497 83.4165 54.8878 83.0542 55.0502C82.692 55.2126 82.2993 55.2957 81.9023 55.2938H74.618V52.365H82.3355L81.1913 51.169L76.1813 45.9471C75.8235 45.4727 75.6436 44.8878 75.6728 44.2944C75.6645 43.8794 75.7385 43.4668 75.8904 43.0805C76.0423 42.6942 76.2692 42.3418 76.558 42.0436C76.8194 41.7445 77.1424 41.5055 77.5049 41.3429C77.8674 41.1804 78.2608 41.0982 78.658 41.1019H84.1907ZM84.6616 40.3956H78.6345C78.1404 40.3917 77.6512 40.4934 77.1997 40.694C76.7482 40.8946 76.3447 41.1894 76.0165 41.5587C75.3137 42.2945 74.9282 43.277 74.9429 44.2944C74.912 45.0615 75.1558 45.8145 75.6304 46.418L80.6592 51.6587H73.9258V56.0001H81.9306C82.4237 56.0025 82.9117 55.9 83.3622 55.6995C83.8128 55.499 84.2155 55.205 84.5439 54.8371C85.2513 54.1032 85.642 53.1206 85.6316 52.1013C85.6269 51.3453 85.3902 50.609 84.9535 49.9919C81.6198 46.5231 79.9341 44.77 79.8964 44.7323H86.2578L84.6851 40.4003L84.6616 40.3956Z" fill="#2A2E3A"/>
</g>
</g>
</g>
<defs>
<clipPath id="clip0_7634_682">
<rect width="210.246" height="56" fill="white"/>
</clipPath>
</defs>
</svg>
